<svg xmlns="http://www.w3.org/2000/svg" id="Group_3" width="175.818" height="23.684" viewBox="0 0 175.818 23.684">
    <defs>
        <style>
            .cls-2{fill:#00b4d8}
        </style>
    </defs>
    <text id="ORDER-FULLFILLER" fill="#03045e" font-family="DMSans-Bold, DM Sans" font-size="12px" font-weight="700" letter-spacing="0.4em" transform="translate(45.818 16.049)">
        <tspan x="0" y="0">ORDER-FULLFILLER</tspan>
    </text>
    <g id="Icon_ionic-logo-ionic">
        <path id="Path_6" d="M16.732 11.334a5.4 5.4 0 1 0 5.4 5.4 5.4 5.4 0 0 0-5.4-5.4z" class="cls-2" transform="translate(-4.89 -4.89)"/>
        <path id="Path_7" d="M29.451 8.31a2.46 2.46 0 1 1-2.46-2.46 2.46 2.46 0 0 1 2.46 2.46z" class="cls-2" transform="translate(-7.401 -3.846)"/>
        <path id="Path_8" fill="#03045e" d="M25.995 10.309l-.1-.228-.165.188a3.72 3.72 0 0 1-1.486 1.019l-.159.057.063.154a9.67 9.67 0 1 1-4.782-5.022l.154.074.068-.154a3.7 3.7 0 0 1 1.093-1.435l.194-.154-.226-.108a11.719 11.719 0 0 0-5.431-1.321 11.842 11.842 0 1 0 10.777 6.934z" transform="translate(-3.375 -3.375)"/>
    </g>
</svg>
