<svg xmlns="http://www.w3.org/2000/svg" width="14.751" height="17.978" viewBox="0 0 14.751 17.978">
    <g>
        <path fill="#03045e" d="M18.907 16.2v-4.61c0-2.83-1.5-5.2-4.149-5.827v-.63a1.383 1.383 0 0 0-2.766 0v.627c-2.637.627-4.149 2.987-4.149 5.827V16.2L6 18.04v.922h14.751v-.922zm-1.844.922H9.688v-5.535c0-2.286 1.392-4.149 3.688-4.149s3.688 1.862 3.688 4.149z" transform="translate(-1204.125 -18.011) translate(1198.125 14.261)"/>
        <path fill="#00b4d8" d="M13.376 21.728a1.849 1.849 0 0 0 1.844-1.844h-3.688a1.849 1.849 0 0 0 1.844 1.844z" transform="translate(-1204.125 -18.011) translate(1198.125 14.261)"/>
    </g>
</svg>
