<svg xmlns="http://www.w3.org/2000/svg" width="16.309" height="16.309" viewBox="0 0 16.309 16.309">
    <path fill="#fff" d="M15.144 2.25H1.161A1.17 1.17 0 0 0 0 3.426v13.957a1.17 1.17 0 0 0 1.161 1.176h13.983a1.173 1.173 0 0 0 1.165-1.176V3.426a1.173 1.173 0 0 0-1.165-1.176zM4.929 16.229H2.512V8.446h2.421v7.783zM3.721 7.383a1.4 1.4 0 1 1 1.4-1.4 1.4 1.4 0 0 1-1.4 1.4zm10.27 8.846h-2.418v-3.786c0-.9-.018-2.064-1.256-2.064-1.26 0-1.453.983-1.453 2v3.852H6.447V8.446h2.319v1.063H8.8a2.546 2.546 0 0 1 2.29-1.256c2.446 0 2.9 1.613 2.9 3.71z" transform="translate(0 -2.25)"/>
</svg>
