<svg xmlns="http://www.w3.org/2000/svg" width="424.115" height="435.513" viewBox="0 0 424.115 435.513">
    <defs>
        <linearGradient id="fnyyxgn15a" x1=".304" x2="-.001" y1=".132" y2=".938" gradientUnits="objectBoundingBox">
            <stop offset="0" stop-color="#1a1b31"/>
            <stop offset=".656" stop-color="#18183a"/>
            <stop offset="1" stop-color="#fff" stop-opacity=".722"/>
        </linearGradient>
    </defs>
    <g style="isolation:isolate">
        <g fill="#fff" stroke="rgba(255,255,255,0.3)" stroke-width="2px" transform="rotate(-8 -513.214 4198.717) matrix(.799 0 -.31 .857 638.463 179.32)">
            <circle cx="208.363" cy="208.363" r="208.363" stroke="none"/>
            <circle cx="208.363" cy="208.363" r="207.363" fill="none"/>
        </g>
        <path fill="url(#fnyyxgn15a)" d="M34.879 332.963a102.058 102.058 0 0 1-16.686-20.168 111.706 111.706 0 0 1-11.351-24 130.67 130.67 0 0 1-6.026-28.01 158.145 158.145 0 0 1-.15-30.566c1.865-20.88 7.581-42.52 16.99-64.318a275.008 275.008 0 0 1 36.319-60.638 302.766 302.766 0 0 1 49.031-49.483 278.99 278.99 0 0 1 58.1-36.07c21.487-9.82 43.1-16.052 64.237-18.523A171.452 171.452 0 0 1 245.19 0a136.67 136.67 0 0 1 41.3 6.074 111.539 111.539 0 0 1 25.258 11.556 102.629 102.629 0 0 1 20.866 17.146 107.021 107.021 0 0 0-41.047-23.622 136.785 136.785 0 0 0-41.3-6.072 171.576 171.576 0 0 0-19.833 1.183c-21.134 2.47-42.748 8.7-64.24 18.523a279.065 279.065 0 0 0-58.1 36.07 302.976 302.976 0 0 0-49.032 49.483 275.281 275.281 0 0 0-36.321 60.638C13.331 192.77 7.617 214.41 5.751 235.3c-1.887 21.121.188 40.83 6.17 58.58a107 107 0 0 0 22.961 39.084z" transform="rotate(-8 -513.214 4198.717) rotate(180 478.744 278.119)"/>
    </g>
</svg>
