<svg xmlns="http://www.w3.org/2000/svg" width="16.309" height="16.309" viewBox="0 0 16.309 16.309">
    <path fill="#fff" d="M14.562 2.25H1.747A1.748 1.748 0 0 0 0 4v12.812a1.748 1.748 0 0 0 1.747 1.747h12.815a1.748 1.748 0 0 0 1.747-1.747V4a1.748 1.748 0 0 0-1.747-1.75zm-1.78 5.781c.007.1.007.208.007.309A6.747 6.747 0 0 1 6 15.134a6.762 6.762 0 0 1-3.666-1.07 5.03 5.03 0 0 0 .575.029 4.787 4.787 0 0 0 2.963-1.019 2.391 2.391 0 0 1-2.232-1.656 2.573 2.573 0 0 0 1.078-.044A2.388 2.388 0 0 1 2.8 9.029V9a2.386 2.386 0 0 0 1.078.3 2.383 2.383 0 0 1-1.06-1.986 2.358 2.358 0 0 1 .324-1.2 6.779 6.779 0 0 0 4.922 2.5 2.393 2.393 0 0 1 4.074-2.181 4.679 4.679 0 0 0 1.514-.575A2.381 2.381 0 0 1 12.6 7.165a4.751 4.751 0 0 0 1.376-.371 5.026 5.026 0 0 1-1.194 1.237z" transform="translate(0 -2.25)"/>
</svg>
