<svg xmlns="http://www.w3.org/2000/svg" width="6.875" height="9.023" viewBox="0 0 6.875 9.023">
    <path fill="#18baff" d="M6.875 7.734A1.289 1.289 0 1 1 5.04 6.57C5 5.72 4.358 5.431 3.249 5.015a7.011 7.011 0 0 1-1.423-.663v2.214a1.289 1.289 0 1 1-1.074 0V2.457a1.289 1.289 0 1 1 1.083 0c.044.85.683 1.14 1.791 1.555 1.09.409 2.439.919 2.492 2.554a1.288 1.288 0 0 1 .757 1.171zm-5.586.744a.744.744 0 1 0-.743-.744.743.743 0 0 0 .743.744zm0-7.933a.744.744 0 1 0 .743.744.744.744 0 0 0-.743-.744zm4.3 6.445a.744.744 0 1 0 .743.744.744.744 0 0 0-.743-.744z"/>
</svg>
