<svg xmlns="http://www.w3.org/2000/svg" width="16" height="16" viewBox="0 0 16 16">
    <g fill="none" fill-rule="evenodd" stroke-linecap="square">
        <g stroke="#696980" stroke-width="1.5">
            <g>
                <g>
                    <g>
                        <path d="M3.607 8.141c.96 1.887 2.506 3.427 4.393 4.394l2.273-2.415c.18-.18.447-.24.68-.16.747.247 1.554.38 2.38.38.367 0 .667.3.667.667v2.326c0 .367-.3.667-.667.667C7.073 14 2 8.927 2 2.667 2 2.3 2.3 2 2.667 2H5c.367 0 .667.3.667.667 0 .833.133 1.633.38 2.38.073.233.02.493-.167.68L3.607 8.14z" transform="translate(-676 -489) translate(278 144) translate(390 311) translate(8 34)"/>
                    </g>
                </g>
            </g>
        </g>
    </g>
</svg>
