<svg xmlns="http://www.w3.org/2000/svg" id="Group_118" width="8.624" height="6.465" viewBox="0 0 8.624 6.465">
    <defs>
        <style>
            .item-details{fill:#18baff}
        </style>
    </defs>
    <path id="Rectangle_12" d="M0 0h3.4a.625.625 0 0 1 .625.625.625.625 0 0 1-.625.625H0V0z" class="item-details" transform="translate(0 5.215)"/>
    <path id="Path_23" d="M0 0h8.049a.6.6 0 0 1 .575.625.6.6 0 0 1-.575.625H0z" class="item-details"/>
    <path id="Rectangle_14" d="M0 0h5.7a.625.625 0 0 1 .625.625.625.625 0 0 1-.625.625H0V0z" class="item-details" transform="translate(0 2.607)"/>
</svg>
