<svg id="item_details_white" data-name="item details white" xmlns="http://www.w3.org/2000/svg" width="13.798" height="10.343" viewBox="0 0 13.798 10.343">
  <path id="Rectangle_12" data-name="Rectangle 12" d="M0,0H5.439a1,1,0,0,1,1,1V1a1,1,0,0,1-1,1H0A0,0,0,0,1,0,2V0A0,0,0,0,1,0,0Z" transform="translate(0 8.343)" fill="#fff"/>
  <path id="Path_23" data-name="Path 23" d="M0,0H12.878a.962.962,0,0,1,.92,1,.962.962,0,0,1-.92,1H0Z" fill="#fff"/>
  <path id="Rectangle_14" data-name="Rectangle 14" d="M0,0H9.118a1,1,0,0,1,1,1V1a1,1,0,0,1-1,1H0A0,0,0,0,1,0,2V0A0,0,0,0,1,0,0Z" transform="translate(0 4.172)" fill="#fff"/>
</svg>
