<svg xmlns="http://www.w3.org/2000/svg" width="11" height="14.438" viewBox="0 0 11 14.438">
  <path id="Bidding_Rules_white" data-name="Bidding Rules white" d="M11,12.375a2.063,2.063,0,1,1-2.936-1.862C7.994,9.151,6.973,8.689,5.2,8.024a11.218,11.218,0,0,1-2.276-1.06v3.541a2.063,2.063,0,1,1-1.719,0V3.932a2.063,2.063,0,1,1,1.733-.007c.07,1.36,1.092,1.824,2.866,2.489,1.745.655,3.9,1.47,3.988,4.087A2.061,2.061,0,0,1,11,12.375Zm-8.937,1.19a1.19,1.19,0,1,0-1.189-1.19A1.189,1.189,0,0,0,2.063,13.565Zm0-12.693a1.19,1.19,0,1,0,1.189,1.19A1.19,1.19,0,0,0,2.063.872ZM8.938,11.185a1.19,1.19,0,1,0,1.189,1.19,1.19,1.19,0,0,0-1.189-1.19Z" fill="#fff"/>
</svg>
