<svg xmlns="http://www.w3.org/2000/svg" width="10.8" height="12.3" viewBox="0 0 10.8 12.3">
    <path fill="#fff" stroke="#18baff" stroke-width="0.3px" d="M9.375 0h-8.25A1.153 1.153 0 0 0 0 1.125v9.75A1.153 1.153 0 0 0 1.125 12h8.25a1.153 1.153 0 0 0 1.125-1.125v-9.75A1.153 1.153 0 0 0 9.375 0zM3 10.2a.323.323 0 0 1-.3.3h-.9a.323.323 0 0 1-.3-.3v-.9a.323.323 0 0 1 .3-.3h.9a.323.323 0 0 1 .3.3zm0-3a.323.323 0 0 1-.3.3h-.9a.323.323 0 0 1-.3-.3v-.9a.323.323 0 0 1 .3-.3h.9a.323.323 0 0 1 .3.3zm3 3a.323.323 0 0 1-.3.3h-.9a.323.323 0 0 1-.3-.3v-.9a.323.323 0 0 1 .3-.3h.9a.323.323 0 0 1 .3.3zm0-3a.323.323 0 0 1-.3.3h-.9a.323.323 0 0 1-.3-.3v-.9a.323.323 0 0 1 .3-.3h.9a.323.323 0 0 1 .3.3zm3 3a.323.323 0 0 1-.3.3h-.9a.323.323 0 0 1-.3-.3V6.3a.323.323 0 0 1 .3-.3h.9a.323.323 0 0 1 .3.3v3.9zm0-6a.323.323 0 0 1-.3.3H1.8a.323.323 0 0 1-.3-.3V1.8a.323.323 0 0 1 .3-.3h6.9a.323.323 0 0 1 .3.3z" transform="translate(.15 .15)"/>
</svg>
