<svg xmlns="http://www.w3.org/2000/svg" width="4.418" height="10.948" viewBox="0 0 4.418 10.948">
  <defs>
    <style>
      .cls-1 {
        fill: #18baff;
        stroke: #fff;
        stroke-width: 0.5px;
      }
    </style>
  </defs>
  <path id="Icon_awesome-info" data-name="Icon awesome-info" class="cls-1" d="M.408,8.657H.816V5.709H.408A.408.408,0,0,1,0,5.3V4.326a.408.408,0,0,1,.408-.408H2.694a.408.408,0,0,1,.408.408V8.657H3.51a.408.408,0,0,1,.408.408v.975a.408.408,0,0,1-.408.408H.408A.408.408,0,0,1,0,10.04V9.065A.408.408,0,0,1,.408,8.657ZM1.959,0A1.469,1.469,0,1,0,3.428,1.469,1.469,1.469,0,0,0,1.959,0Z" transform="translate(0.25 0.25)"/>
</svg>
