<svg xmlns="http://www.w3.org/2000/svg" width="12" height="12" viewBox="0 0 12 12">
    <g>
        <path fill="#1ec34a" d="M6 0a6 6 0 1 1-6 6 6 6 0 0 1 6-6z" transform="translate(-137 -22.5) translate(137 22.5)"/>
        <path fill="#fff" stroke="#1ec34a" stroke-width="0.4px" d="M.268 5.682h.268V3.747H.268A.268.268 0 0 1 0 3.479v-.64a.268.268 0 0 1 .268-.268h1.5a.268.268 0 0 1 .268.268v2.843H2.3a.268.268 0 0 1 .268.268v.64a.268.268 0 0 1-.268.268H.268A.268.268 0 0 1 0 6.589v-.64a.268.268 0 0 1 .268-.267zM1.286 0a.964.964 0 1 0 .964.964A.964.964 0 0 0 1.286 0z" transform="translate(-137 -22.5) translate(141.714 25.071)"/>
    </g>
</svg>
