<svg xmlns="http://www.w3.org/2000/svg" width="10.563" height="13" viewBox="0 0 10.563 13">
    <path fill="#f05574" d="M5.311 5.991v8.125a.815.815 0 0 0 .813.813h7.312a.815.815 0 0 0 .813-.813V5.991H5.311zM7.749 13.3h-.813V7.616h.813zm1.625 0h-.813V7.616h.813zm1.626 0h-.812V7.616H11zm1.625 0h-.812V7.616h.812zm1.828-9.75h-2.642V2.537a.611.611 0 0 0-.609-.609H8.358a.611.611 0 0 0-.609.609v1.016H5.108a.611.611 0 0 0-.609.609v1.016h10.562V4.162a.611.611 0 0 0-.609-.609zM11 3.553H8.561v-.8H11v.8z" transform="translate(-4.499 -1.928)"/>
</svg>
