<svg xmlns="http://www.w3.org/2000/svg" width="16.002" height="16.002" viewBox="0 0 16.002 16.002">
    <path fill="#fff" d="M10.572 1.928a8 8 0 1 0 8 8 8 8 0 0 0-8-8zm-3 8a3 3 0 1 1 3 3 3 3 0 0 1-3-3zm9.469 2.68l-2.773-1.148a4.011 4.011 0 0 0 0-3.062L17.04 7.25a7.019 7.019 0 0 1 0 5.359zm-3.79-9.148L12.1 6.232a4.011 4.011 0 0 0-3.062 0L7.892 3.46a7.019 7.019 0 0 1 5.359 0zM4.1 7.249L6.875 8.4a4.011 4.011 0 0 0 0 3.062L4.1 12.608a7.019 7.019 0 0 1 0-5.359zM7.892 16.4l1.148-2.775a4.011 4.011 0 0 0 3.062 0l1.149 2.775a7.019 7.019 0 0 1-5.359 0z" transform="translate(-2.571 -1.928)"/>
</svg>
