<svg xmlns="http://www.w3.org/2000/svg" width="18.966" height="15.776" viewBox="0 0 18.966 15.776">
    <defs>
        <style>
            .order-sidenav-icon{fill:none;stroke:#fff;stroke-linecap:round;stroke-linejoin:round;stroke-width:1.6px}
        </style>
    </defs>
    <g id="Icon_feather-users" transform="translate(.8 .871)">
        <path id="Path_272" d="M14.13 27.2v-1.565a3.146 3.146 0 0 0-3.158-3.135H4.657A3.146 3.146 0 0 0 1.5 25.635V27.2" class="order-sidenav-icon" transform="translate(-1.5 -13.096)"/>
        <path id="Path_273" d="M13.815 7.635A3.158 3.158 0 1 1 10.657 4.5a3.146 3.146 0 0 1 3.158 3.135z" class="order-sidenav-icon" transform="translate(-4.343 -4.5)"/>
        <path id="Path_274" d="M32.368 27.295v-1.567A3.139 3.139 0 0 0 30 22.7" class="order-sidenav-icon" transform="translate(-15.002 -13.189)"/>
        <path id="Path_275" d="M24 4.7a3.129 3.129 0 0 1 0 6.073" class="order-sidenav-icon" transform="translate(-12.16 -4.593)"/>
    </g>
</svg>
