<svg xmlns="http://www.w3.org/2000/svg" width="17.917" height="17.917" viewBox="0 0 17.917 17.917">
    <defs>
        <style>
            .order-sidenav-icon{fill:none;stroke:#fff;stroke-linecap:round;stroke-linejoin:round;stroke-width:1.8px}
        </style>
    </defs>
    <g id="Icon_feather-settings" transform="translate(.9 .9)">
        <path id="Path_11" d="M17.9 15.7a2.2 2.2 0 1 1-2.2-2.2 2.2 2.2 0 0 1 2.2 2.2z" class="order-sidenav-icon" transform="translate(-7.639 -7.639)"/>
        <path id="Path_12" d="M14.98 11.756a1.209 1.209 0 0 0 .242 1.333l.044.044a1.466 1.466 0 1 1-2.073 2.073l-.044-.044a1.219 1.219 0 0 0-2.066.864v.125a1.465 1.465 0 0 1-2.93 0v-.066a1.209 1.209 0 0 0-.791-1.106 1.209 1.209 0 0 0-1.333.242l-.044.044a1.466 1.466 0 1 1-2.075-2.073l.044-.044a1.219 1.219 0 0 0-.864-2.066h-.125a1.465 1.465 0 1 1 0-2.93h.066a1.209 1.209 0 0 0 1.106-.791A1.209 1.209 0 0 0 3.9 6.027l-.044-.044A1.466 1.466 0 1 1 5.925 3.91l.044.044A1.209 1.209 0 0 0 7.3 4.2h.059a1.209 1.209 0 0 0 .734-1.11v-.125a1.465 1.465 0 0 1 2.93 0v.066a1.219 1.219 0 0 0 2.066.864l.044-.044a1.466 1.466 0 1 1 2.073 2.073l-.044.044a1.209 1.209 0 0 0-.241 1.332v.059a1.209 1.209 0 0 0 1.106.733h.125a1.465 1.465 0 0 1 0 2.93h-.066a1.209 1.209 0 0 0-1.106.733z" class="order-sidenav-icon" transform="translate(-1.5 -1.5)"/>
    </g>
</svg>
